<?xml version="1.0" encoding="UTF-8" standalone="no"?>
<!-- Created with Inkscape (http://www.inkscape.org/) -->

<svg
   width="176.29872mm"
   height="41.749691mm"
   viewBox="0 0 176.29872 41.749691"
   version="1.1"
   id="svg1"
   xml:space="preserve"
   inkscape:version="1.3.2 (091e20e, 2023-11-25, custom)"
   sodipodi:docname="logo-cellax.svg"
   xmlns:inkscape="http://www.inkscape.org/namespaces/inkscape"
   xmlns:sodipodi="http://sodipodi.sourceforge.net/DTD/sodipodi-0.dtd"
   xmlns="http://www.w3.org/2000/svg"
   xmlns:svg="http://www.w3.org/2000/svg"><sodipodi:namedview
     id="namedview1"
     pagecolor="#ffffff"
     bordercolor="#000000"
     borderopacity="0.25"
     inkscape:showpageshadow="2"
     inkscape:pageopacity="0.0"
     inkscape:pagecheckerboard="0"
     inkscape:deskcolor="#d1d1d1"
     inkscape:document-units="mm"
     inkscape:zoom="1.0449705"
     inkscape:cx="396.6619"
     inkscape:cy="331.5883"
     inkscape:window-width="2560"
     inkscape:window-height="1369"
     inkscape:window-x="-8"
     inkscape:window-y="-8"
     inkscape:window-maximized="1"
     inkscape:current-layer="layer1" /><defs
     id="defs1"><linearGradient
       id="swatch1"><stop
         style="stop-color:#000000;stop-opacity:1;"
         offset="0"
         id="stop1" /></linearGradient></defs><g
     inkscape:label="Layer 1"
     inkscape:groupmode="layer"
     id="layer1"><path
       style="fill:#2a7f74;fill-opacity:1"
       d="M 4.036589,41.4092 C 3.433222,41.1963 2.629968,40.62262 1.867158,39.85981 0.90142099,38.89408 0.58264399,38.39669 0.29476399,37.40642 c -0.987404,-3.39655 0.574421,-6.86939 3.65989401,-8.13807 l 0.931878,-0.38316 7.99e-4,-7.93635 7.99e-4,-7.93635 -1.119051,-0.5589 C 1.42388,11.28229 0.20062899,9.4656602 0.03264899,6.9046702 c -0.143824,-2.1927 0.333168,-3.47957 1.85219001,-4.99699 1.83067,-1.82874005 3.8584303,-2.32405005 6.4110523,-1.56601005 1.534995,0.45585 3.3747457,2.26418005 3.9949237,3.92671005 l 0.436452,1.17001 h 7.70821 7.708204 l 0.51353,-1.27892 c 0.66481,-1.65566 2.37536,-3.31680005 3.95612,-3.84184005 1.40851,-0.46783 3.57747,-0.34481 4.78059,0.27116 1.19214,0.61034005 2.35712,1.80431005 3.02904,3.10443005 0.7651,1.4804 0.82797,4.00163 0.1372,5.50143 -0.64882,1.4086998 -1.85207,2.6468398 -3.18513,3.2774798 l -1.15345,0.54567 v 7.97045 7.97045 l 0.74746,0.24668 c 1.13127,0.37336 2.95233,2.15502 3.53546,3.45898 0.67053,1.4994 0.69091,3.87284 0.0456,5.30591 -0.5994,1.33102 -1.73531,2.54278 -2.97927,3.17821 -1.43852,0.7348 -4.18672,0.75566 -5.63355,0.0427 -1.39033,-0.68507 -2.49956,-1.86299 -3.20822,-3.40692 l -0.61149,-1.3322 H 20.356753 12.595932 L 12.224942,37.569 C 11.728679,39.06311 9.8931683,40.92285 8.4205113,41.42365 7.1264003,41.86374 5.30792,41.85772 4.036629,41.40915 Z m 24.508542,-8.99988 c 0.25675,-0.61985 0.22464,-0.67239 -1.62607,-2.65994 l -1.888,-2.02759 -4.596802,-0.004 -4.596804,-0.004 -1.970946,2.0098 -1.970947,2.00981 0.338509,0.6546 0.338508,0.6546 h 7.855316 7.855316 z m -16.680698,-4.5319 1.762962,-1.75381 v -5.1997 -5.1997 l -1.718139,-1.76025 -1.718138,-1.76026 -0.9995577,0.37938 -0.999559,0.37937 -0.0558,7.96707 -0.05581,7.96708 0.908416,0.34166 c 0.499628,0.18792 0.954371,0.35321 1.01054,0.36731 0.05617,0.0141 0.8954567,-0.76356 1.8650857,-1.72815 z m 20.165238,1.41317 0.9997,-0.34063 -0.0558,-8.00791 -0.0558,-8.0079 -0.93902,-0.31295 -0.93902,-0.31295 -1.77867,1.81094 -1.77868,1.81095 v 5.06478 5.06479 l 1.74303,1.78576 c 0.95867,0.98216 1.75689,1.78575 1.77383,1.78575 0.0169,0 0.48066,-0.15328 1.03049,-0.34063 z m -5.09729,-17.18094 c 1.43616,-1.53909 1.80154,-2.05543 1.69689,-2.3979698 -0.30147,-0.9868 -0.15255,-0.96942 -8.308192,-0.96942 h -7.7485 l -0.345581,0.66827 -0.34558,0.6682798 1.98783,1.99613 1.98783,1.99613 h 4.622525 4.622528 z m 31.1035,25.82666 c -4.67766,-0.83455 -8.33552,-4.46122 -9.34393,-9.26428 -0.45774,-2.1802 -0.41257,-5.64732 0.0997,-7.65016 1.44189,-5.63773 5.54882,-9.13689 11.08991,-9.44876 4.71264,-0.26524 8.37145,1.81774 10.43507,5.94073 0.47411,0.94725 0.86202,1.84734 0.86202,2.00022 0,0.1693 -0.56249,0.40372 -1.43878,0.59962 -1.51969,0.33975 -3.85174,0.77828 -4.13875,0.77828 -0.0937,0 -0.40799,-0.46884 -0.69836,-1.04186 -1.32283,-2.61048 -3.96708,-3.645 -6.4067,-2.50653 -4.28564,1.99995 -5.52836,9.45831 -2.20503,13.23381 2.18739,2.48501 5.42569,2.70718 7.59048,0.52075 0.46933,-0.47402 1.01436,-1.21895 1.21117,-1.6554 l 0.35783,-0.79354 2.81078,0.3678 c 1.54593,0.20229 2.82555,0.37529 2.84359,0.38444 0.0181,0.009 -0.15309,0.50589 -0.3803,1.10387 -1.45853,3.83853 -3.71481,6.13813 -6.9547,7.08824 -1.43916,0.42204 -4.32328,0.59445 -5.73397,0.34277 z m 24.22668,-0.11152 c -4.33203,-0.93377 -7.66971,-4.25115 -8.88707,-8.83303 -0.50387,-1.89648 -0.50462,-6.19855 -10e-4,-8.0998 1.23735,-4.67491 4.65167,-8.17993 8.83096,-9.06554 5.39991,-1.14426 10.14185,1.11096 12.41088,5.90248 1.016225,2.14597 1.501555,4.40553 1.501555,6.99082 v 1.92736 h -8.642335 -8.64235 l 0.14062,0.79932 c 0.21651,1.23073 0.89569,2.64399 1.64813,3.42948 1.5901,1.65995 4.34683,2.36253 6.48431,1.65257 1.18897,-0.39491 2.68128,-1.56465 3.14831,-2.4678 l 0.30694,-0.59355 1.44598,0.28821 c 0.79529,0.15851 1.94578,0.39331 2.55664,0.52177 l 1.110655,0.23357 -0.420315,1.06636 c -0.61492,1.56007 -1.71971,3.18901 -2.77619,4.09331 -2.46914,2.1135 -6.48049,2.95951 -10.21532,2.15447 z m 8.00871,-16.45324 c -0.38777,-2.81436 -2.16174,-4.55672 -4.79065,-4.70527 -1.78306,-0.10075 -2.95131,0.21075 -4.11278,1.09664 -0.98563,0.75176 -1.96584,2.46229 -2.19006,3.82179 l -0.13183,0.79932 h 5.68241 5.68241 z m 36.380589,16.46254 c -1.80647,-0.39242 -3.29871,-1.24796 -4.53374,-2.59928 -1.31168,-1.43519 -1.91438,-2.99211 -1.91438,-4.94533 0,-2.51769 0.92898,-4.342 2.94685,-5.78696 2.12157,-1.51922 4.59191,-2.18641 9.47233,-2.55826 4.72701,-0.36016 4.41988,-0.26368 4.41988,-1.38853 0,-1.81556 -1.04633,-3.23827 -2.72431,-3.70429 -1.04226,-0.28947 -3.55621,-0.28111 -4.62945,0.0154 -1.02526,0.28324 -2.3522,1.5968 -2.55755,2.53177 -0.13987,0.63682 -0.1778,0.65668 -1.03194,0.54048 -0.48769,-0.0663 -1.73918,-0.212 -2.78108,-0.32366 -1.0419,-0.11167 -1.93871,-0.24738 -1.99291,-0.30158 -0.15982,-0.15982 0.37248,-1.6322 1.07106,-2.96259 1.67194,-3.18409 4.90416,-4.83801 9.45479,-4.83801 6.22903,0 9.94244,2.3793 11.05085,7.08062 0.25176,1.06784 0.31631,3.1202 0.31882,10.13731 l 0.003,8.7984 -3.03742,-0.0591 -3.03743,-0.0591 -0.10658,-1.70522 c -0.074,-1.18383 -0.15824,-1.56365 -0.27554,-1.24221 -0.23945,0.65617 -1.65378,1.8786 -2.91001,2.51518 -2.19455,1.11206 -4.67001,1.40582 -7.20539,0.85505 z m 6.75488,-5.41157 c 2.64352,-0.82275 3.62333,-2.15695 3.63138,-4.94483 l 0.005,-1.62064 -1.11905,0.082 c -5.92753,0.43444 -7.64069,0.77772 -8.72756,1.74884 -0.88758,0.79306 -1.07524,2.51933 -0.39218,3.60764 0.93419,1.4884 3.8451,1.98525 6.60273,1.12697 z M 99.314776,19.18674 V 0.85561015 h 2.984134 2.98414 V 19.18674 37.51787 h -2.98414 -2.984134 z m 11.297094,0 V 0.85561015 h 2.98414 2.98413 V 19.18674 37.51787 h -2.98413 -2.98414 z m 37.55583,17.95811 c 2.24473,-2.61511 9.55091,-11.64381 9.55091,-11.80264 0,-0.19068 -5.87965,-7.79395 -9.00449,-11.64415 l -1.25422,-1.54536 4.33003,0.009 4.33004,0.009 3.00963,4.04134 3.00964,4.04135 3.23057,-4.05002 3.23057,-4.05001 h 3.73218 c 3.49287,0 3.71863,0.0239 3.52085,0.37302 -0.11624,0.20516 -2.32547,3.05874 -4.90941,6.34129 -2.58394,3.28255 -4.69834,6.03081 -4.69868,6.10723 -3.3e-4,0.0764 1.94176,2.52509 4.31574,5.44146 2.37399,2.91638 4.63614,5.70743 5.027,6.20234 l 0.71066,0.89983 h -4.2485 -4.2485 l -2.91903,-3.83675 c -1.60547,-2.11021 -2.98692,-3.83112 -3.0699,-3.82425 -0.083,0.007 -1.49371,1.72968 -3.13499,3.82845 l -2.98414,3.81594 -3.92307,0.008 c -3.71654,0.008 -3.90622,-0.0113 -3.60289,-0.36472 z"
       id="path1" /></g></svg>
